<mxfile host="app.diagrams.net" modified="2024-02-21T18:53:20.732Z" agent="Mozilla/5.0 (Windows NT 10.0; Win64; x64) AppleWebKit/537.36 (KHTML, like Gecko) Chrome/121.0.0.0 Safari/537.36" version="23.1.5" etag="cmhmOPHgDW1Auyh9B6R2" type="github">
  <diagram name="Page-1" id="glJ6FshlBPKC2VBxvN3N">
    <mxGraphModel>
      <root>
        <mxCell id="0" />
        <mxCell id="1" parent="0" />
      </root>
    </mxGraphModel>
  </diagram>
</mxfile>
